<?xml version="1.0" encoding="utf-8"?><svg xmlns="http://www.w3.org/2000/svg" xmlns:xlink="http://www.w3.org/1999/xlink"><symbol viewBox="0 0 25 26" id="angl" xmlns="http://www.w3.org/2000/svg"><path d="M24.769 24.001L1.342 1.09C.848.606 0 .95 0 1.634v22.911c0 .425.352.77.786.77h23.427c.698 0 1.051-.83.556-1.314zm-23.196-.225V3.49L4.6 6.451l-.565.552a.757.757 0 000 1.088.8.8 0 001.113 0l.564-.552L7.994 9.77l-.565.552a.757.757 0 000 1.088.8.8 0 001.112 0l.565-.552 2.281 2.231-.564.553a.757.757 0 000 1.087.8.8 0 001.112 0l.565-.552 2.281 2.231-.564.553a.757.757 0 000 1.087.8.8 0 001.112 0l.564-.552 2.282 2.232-.565.552a.757.757 0 000 1.087.8.8 0 001.113 0l.564-.552 3.027 2.96H1.573z"/><path d="M7.494 13.684c-.923-.903-2.506-.263-2.506 1.015V19c0 .793.658 1.437 1.468 1.437h4.397c1.306 0 1.963-1.548 1.039-2.451l-4.398-4.301zm-.933 5.214v-3.952l4.04 3.952h-4.04z"/></symbol><symbol viewBox="0 0 21 11" id="arrow_down" xmlns="http://www.w3.org/2000/svg"><path d="M10.827 10.83l9.823-9.823a.587.587 0 000-.834.587.587 0 00-.833 0l-9.405 9.405L1.008.173A.593.593 0 000 .588a.58.58 0 00.174.415l9.824 9.823a.586.586 0 00.829.004z"/></symbol><symbol viewBox="0 0 31 25" id="basket" xmlns="http://www.w3.org/2000/svg"><path d="M29.576 8.327a2.035 2.035 0 00-1.6-.768h-5.672L19.23.518a.863.863 0 10-1.58.69l2.773 6.351H10.158l2.774-6.35A.863.863 0 0011.35.517L8.275 7.559h-5.67c-.63 0-1.213.28-1.601.768a1.986 1.986 0 00-.387 1.69l3.029 13.227a2.021 2.021 0 001.987 1.57h19.314c.958 0 1.776-.646 1.987-1.57l3.028-13.228a1.986 1.986 0 00-.386-1.69zm-4.63 14.76H5.634a.309.309 0 01-.305-.228L2.299 9.631a.263.263 0 01.054-.229.313.313 0 01.251-.117h4.918l-.226.517a.863.863 0 001.58.69l.528-1.207h11.771l.528 1.208a.863.863 0 101.581-.69l-.226-.518h4.918c.137 0 .216.073.25.117a.263.263 0 01.055.23l-3.029 13.227a.309.309 0 01-.305.229z"/></symbol><symbol viewBox="0 0 23 24" id="basket2" xmlns="http://www.w3.org/2000/svg"><path d="M22.45 4.502a2.247 2.247 0 00-1.728-.77H4.192L4.024 2.47C3.845 1.113 2.91.049 1.895.049H.68A.684.684 0 000 .736c0 .38.305.688.68.688h1.215c.218 0 .68.466.781 1.228l1.948 14.764c.086.65.416 1.26.931 1.716a2.8 2.8 0 001.306.656 2.534 2.534 0 00-.302 1.204c0 1.395 1.123 2.529 2.502 2.529 1.38 0 2.503-1.134 2.503-2.53 0-.415-.1-.807-.277-1.153h3.566a2.533 2.533 0 00-.277 1.154c0 1.395 1.122 2.529 2.502 2.529 1.38 0 2.503-1.134 2.503-2.53 0-.415-.1-.807-.277-1.153h1.783c.375 0 .68-.308.68-.687a.684.684 0 00-.68-.688H7.36c-.665 0-1.3-.563-1.388-1.229l-.143-1.079h13.435c.65 0 1.29-.25 1.805-.706a2.789 2.789 0 00.932-1.716l.976-7.398c.09-.685-.097-1.336-.528-1.833zm-12.247 16.49a1.15 1.15 0 01-1.142 1.154 1.15 1.15 0 01-1.141-1.154 1.15 1.15 0 011.141-1.154c.63 0 1.142.518 1.142 1.154zm8.017 0a1.15 1.15 0 01-1.142 1.154 1.15 1.15 0 01-1.141-1.154 1.15 1.15 0 011.141-1.154c.63 0 1.142.518 1.142 1.154zm3.206-15.584c.169.195.24.46.203.745l-.41 3.103H16.59l.274-4.15h3.858a.91.91 0 01.704.302zm-9.662 9.372l-.274-4.149h3.646l-.274 4.149h-3.098zm-.365-5.524l-.273-4.15H15.5l-.274 4.15H11.4zm-1.637-4.15l.273 4.15H4.92l-.547-4.15h5.389zm-4.66 5.525h5.024l.274 4.149H5.649L5.1 10.63zm14.163 4.149h-3.04l.274-4.149h4.54l-.386 2.92c-.088.666-.724 1.229-1.388 1.229z"/></symbol><symbol viewBox="0 0 17 17" id="calendar" xmlns="http://www.w3.org/2000/svg"><path d="M16.004 9.705V1.528a.498.498 0 00-.498-.498h-2.524V.5a.498.498 0 10-.996 0v.531H9.994V.5a.498.498 0 10-.996 0v.531H7.006V.5a.498.498 0 10-.996 0v.531H4.018V.5a.498.498 0 10-.997 0v.531H.498A.498.498 0 000 1.528v12.983c0 .275.223.498.498.498h8.294A4.482 4.482 0 0012.518 17 4.488 4.488 0 0017 12.519a4.461 4.461 0 00-.996-2.814zM3.02 2.026v.498a.498.498 0 10.997 0v-.498H6.01v.498a.498.498 0 10.996 0v-.498h1.992v.498a.498.498 0 10.996 0v-.498h1.992v.498a.498.498 0 10.996 0v-.498h2.026V4.02H.996V2.026h2.025zM.996 14.013V5.015h14.012v3.778a4.457 4.457 0 00-2.49-.757 4.481 4.481 0 00-3.76 2.046.495.495 0 00-.225-.054h-.996a.498.498 0 000 .996h.755c-.113.318-.19.651-.229.997h-.526a.498.498 0 000 .996h.526c.038.345.116.678.229.996H.996zm11.522 1.992a3.49 3.49 0 01-3.487-3.486 3.49 3.49 0 013.487-3.487 3.49 3.49 0 013.486 3.487 3.49 3.49 0 01-3.486 3.486z"/><path d="M14.51 12.02h-1.494v-1.494a.498.498 0 10-.996 0v1.993c0 .275.223.498.498.498h1.992a.498.498 0 100-.996zM4.516 6.044H3.52a.498.498 0 100 .996h.996a.498.498 0 100-.996zm0 1.992H3.52a.498.498 0 100 .996h.996a.498.498 0 100-.996zm0 1.992H3.52a.498.498 0 000 .996h.996a.498.498 0 100-.996zM7.537 7.04h.996a.498.498 0 100-.996h-.996a.498.498 0 100 .996zm0 1.992h.996a.498.498 0 100-.996h-.996a.498.498 0 100 .996zM4.516 12.02H3.52a.498.498 0 000 .997h.996a.498.498 0 100-.996zm7.005-4.98h.997a.498.498 0 100-.996h-.997a.498.498 0 100 .996z"/></symbol><symbol viewBox="0 0 54 58" id="client01" xmlns="http://www.w3.org/2000/svg"><path d="M5.786 53.037H3.857a.964.964 0 100 1.928h1.929a.964.964 0 000-1.928zm0-2.893H3.857a.964.964 0 100 1.929h1.929a.964.964 0 000-1.929zm17.357 2.893h-1.929a.964.964 0 100 1.928h1.929a.964.964 0 000-1.928zm0-2.893h-1.929a.964.964 0 100 1.929h1.929a.964.964 0 000-1.929zM40.5 53.037h-1.93a.964.964 0 100 1.928h1.93a.964.964 0 000-1.928zm0-2.893h-1.93a.964.964 0 100 1.929h1.93a.964.964 0 000-1.929z"/><path d="M53.036 36.644H45.32V18.322a.964.964 0 00-.964-.964h-7.714V.965a.964.964 0 00-.964-.964H18.32a.964.964 0 00-.964.964v16.393H9.643a.964.964 0 00-.964.964v18.322H.964a.964.964 0 00-.964.964v19.286a.964.964 0 00.964.964h52.072a.965.965 0 00.964-.964V37.608a.964.964 0 00-.964-.964zm-9.643 1.928h1.928v3.858h-1.928v-3.858zm0-1.928H27.964V19.287h4.822v4.821a.965.965 0 00.964.964h3.857a.964.964 0 00.964-.964v-4.821h4.822v17.357zm-17.357 1.928h1.928v3.858h-1.928v-3.858zm10.607-19.285v3.857h-1.929v-3.857h1.929zM27.964 1.93v1.928h-1.928V1.93h1.928zm-8.678 0h4.821v2.892a.964.964 0 00.964.965h3.858a.964.964 0 00.964-.965V1.93h4.821v15.428H19.286V1.93zm0 17.357v3.857h-1.929v-3.857h1.929zm-8.679 0h4.822v4.821a.965.965 0 00.964.964h3.857a.965.965 0 00.964-.964v-4.821h4.822v17.357H10.607V19.287zm0 19.285v3.858H8.68v-3.858h1.928zm-8.678 0H6.75v4.822a.964.964 0 00.964.964h3.857a.965.965 0 00.965-.964v-4.822h4.821V55.93H1.93V38.572zm17.357 0h4.821v4.822a.964.964 0 00.964.964h3.858a.964.964 0 00.964-.964v-4.822h4.821V55.93H19.286V38.572zM52.07 55.93H36.643V38.572h4.821v4.822a.965.965 0 00.965.964h3.857a.965.965 0 00.964-.964v-4.822h4.821V55.93z"/><path d="M12.536 35.68h1.928a.964.964 0 100-1.929h-1.928a.965.965 0 000 1.928zm0-2.894h1.928a.964.964 0 100-1.928h-1.928a.965.965 0 000 1.928zm19.286.965h-1.929a.965.965 0 000 1.928h1.929a.964.964 0 100-1.928zm0-2.893h-1.929a.965.965 0 000 1.928h1.929a.964.964 0 100-1.928zM21.214 13.5h1.929a.964.964 0 000-1.928h-1.929a.965.965 0 000 1.929zm0 2.894h1.929a.964.964 0 000-1.929h-1.929a.964.964 0 100 1.929z"/></symbol><symbol viewBox="0 0 57 56" id="client02" xmlns="http://www.w3.org/2000/svg"><path d="M.934 7.468c1.735 0 3.183-1.195 3.6-2.8h16.674A1.86 1.86 0 0119.6 5.6h-.934a.933.933 0 00-.933.933V9.52l-7.67 1.704a.936.936 0 00-.623.475.936.936 0 00-.04.783l.417 1.044-7.308 2.387a.932.932 0 00-.642.837L.001 51.282a.934.934 0 00.933.986h3.733v2.8c0 .515.417.933.933.933h26.134a.933.933 0 00.933-.933v-2.8H36.4a.935.935 0 00.933-.984L35.604 19.31l1.526-4.015 6.773 2.195 1.779 32.91h-5.51l.894-22.363-1.865-.074-.933 23.333a.935.935 0 00.932.97h7.467a.935.935 0 00.932-.983l-1.762-32.616H50.4v18.666h-2.8V39.2h3.734a.933.933 0 00.933-.933v-19.6h2.8a.936.936 0 00.836-1.35l-2.8-5.6a.937.937 0 00-.633-.495L44.8 9.52V7.468c1.736 0 3.184-1.195 3.601-2.8h3.065c.417 1.605 1.866 2.8 3.601 2.8a.933.933 0 00.934-.934v-5.6a.933.933 0 00-.934-.933c-1.735 0-3.184 1.195-3.6 2.8H48.4c-.417-1.605-1.866-2.8-3.6-2.8H42v1.867h2.8a1.86 1.86 0 011.607.933h-12.94c-.417-1.605-1.866-2.8-3.6-2.8h-2.8v1.867h2.8a1.86 1.86 0 011.606.933H23.2c-.417-1.605-1.866-2.8-3.6-2.8h-2.8v1.867h2.8a1.86 1.86 0 011.607.933H4.535C4.117 1.196 2.669.001.934.001A.933.933 0 000 .934v5.6c0 .516.418.934.934.934zm53.2-5.35v3.233a1.868 1.868 0 010-3.232zM23.2 4.669h8.273a1.86 1.86 0 01-1.607.933h-.933a.933.933 0 00-.934.933v3.734c0 .437.304.816.731.91l2.528.562-1.254 2.612-2.495-.81.424-1.061a.936.936 0 00-.664-1.258L19.6 9.52V7.468c1.735 0 3.184-1.195 3.601-2.8zm-4.534 6.555l7.126 1.584-2.859 7.146-2.635-2.109 3.515-2.109a.934.934 0 00.18-1.46l-1.866-1.866-1.32 1.32 1.022 1.02-3.163 1.897-3.162-1.897 1.022-1.022-1.32-1.32-1.866 1.867a.93.93 0 00.18 1.46l3.516 2.11-2.636 2.108-2.859-7.146 7.125-1.583zM6.534 52.268H8.4a.935.935 0 00.933-.971L8.4 27.964l-1.865.074.894 22.363h-5.51L3.7 17.49l6.815-2.227 2.62 6.55a.93.93 0 00.63.556c.286.078.59.011.82-.173l3.15-2.52v34.458h-11.2v-1.866zM29.905 50.4l.894-22.363-1.864-.074L28 51.297a.935.935 0 00.933.97H30.8v1.867H19.6V19.677l3.15 2.52a.937.937 0 00.822.173.933.933 0 00.629-.555l2.614-6.534 6.822 2.212L35.415 50.4h-5.51zm4.982-34.455c-.023-.01-.041-.025-.066-.033l-3.025-.98 1.333-2.777 2.949.655-1.191 3.135zM44.8 5.601h-.933a.933.933 0 00-.933.933V9.52l-3.47.771.406 1.822 3.997-.889 7.764 1.726 1.926 3.852h-7.821l-.003-.05a.933.933 0 00-.644-.838l-7.294-2.364.411-1.082a.93.93 0 00-.67-1.243L29.867 9.52V7.468c1.735 0 3.184-1.195 3.6-2.8h12.94a1.86 1.86 0 01-1.606.933zM1.867 2.119a1.865 1.865 0 010 3.23V2.12z"/><path d="M32.667 46.667h1.867v1.867h-1.867v-1.867zm-29.867 0h1.867v1.867H2.8v-1.867zM14 26.134h1.867v1.867H14v-1.867zm0 9.334h1.867v1.866H14v-1.866zm0 9.333h1.867v1.867H14V44.8z"/></symbol><symbol viewBox="0 0 71 55" id="client03" xmlns="http://www.w3.org/2000/svg"><path d="M31.621 36.804c0-.573-.464-1.037-1.038-1.037H19.95c-.28 0-.547.112-.742.312l-4.333 4.43a.623.623 0 01-.48.188.621.621 0 01-.459-.234l-3.446-4.307a1.037 1.037 0 00-.81-.39H6.871a4.801 4.801 0 01-4.796-4.795V6.872a4.801 4.801 0 014.796-4.796h41.28a4.801 4.801 0 014.797 4.796v24.099a4.801 4.801 0 01-4.796 4.796H35.006a1.038 1.038 0 000 2.075h13.146a6.88 6.88 0 006.871-6.871V6.872A6.88 6.88 0 0048.152.001H6.872A6.88 6.88 0 000 6.872v24.099a6.88 6.88 0 006.871 6.871h2.31l3.135 3.918a2.705 2.705 0 004.042.2l4.028-4.118h10.197c.574 0 1.038-.465 1.038-1.038z"/><path d="M69.962 23.574c-.573 0-1.038.464-1.038 1.037v17.933a4.801 4.801 0 01-4.795 4.796H61.32c-.315 0-.613.143-.81.389l-3.446 4.307a.62.62 0 01-.459.235.621.621 0 01-.48-.188l-4.333-4.431a1.038 1.038 0 00-.741-.312H28.244a4.801 4.801 0 01-4.796-4.796v-1.589a1.038 1.038 0 00-2.075 0v1.589a6.88 6.88 0 006.871 6.871h22.37l4.028 4.119a2.703 2.703 0 004.042-.201l3.135-3.918h2.31a6.88 6.88 0 006.87-6.871V24.61c0-.573-.464-1.037-1.037-1.037zm-5.833-12h-5.993a1.038 1.038 0 100 2.076h5.992a4.801 4.801 0 014.796 4.796v1.743a1.038 1.038 0 002.076 0v-1.743a6.879 6.879 0 00-6.871-6.872zm-40.145 7.868a3.532 3.532 0 003.527 3.528 3.532 3.532 0 003.528-3.527 3.532 3.532 0 00-3.528-3.528 3.532 3.532 0 00-3.527 3.527zm4.98 0a1.454 1.454 0 01-2.904 0 1.452 1.452 0 012.903 0zm-20.136 0a3.532 3.532 0 003.527 3.528 3.531 3.531 0 003.527-3.527 3.531 3.531 0 00-3.527-3.528 3.532 3.532 0 00-3.527 3.527zm4.98 0c0 .801-.652 1.453-1.453 1.453-.8 0-1.452-.652-1.452-1.453 0-.8.652-1.451 1.452-1.451.8 0 1.452.651 1.452 1.451zm32.387 0a3.532 3.532 0 00-3.527-3.527 3.532 3.532 0 00-3.528 3.527 3.532 3.532 0 003.528 3.528 3.532 3.532 0 003.527-3.527zm-4.98 0a1.454 1.454 0 012.904 0c0 .801-.65 1.453-1.451 1.453-.8 0-1.452-.652-1.452-1.453z"/></symbol><symbol viewBox="0 0 65 47" id="client04" xmlns="http://www.w3.org/2000/svg"><path d="M14.982 33.627a6.427 6.427 0 00-6.421 6.42 6.427 6.427 0 006.421 6.421 6.427 6.427 0 006.421-6.42 6.428 6.428 0 00-6.421-6.422zm0 10.701c-2.36 0-4.28-1.92-4.28-4.28a4.285 4.285 0 014.28-4.281c2.36 0 4.28 1.92 4.28 4.28a4.285 4.285 0 01-4.28 4.281zm36.386-10.701a6.427 6.427 0 00-6.421 6.42 6.427 6.427 0 006.42 6.421 6.427 6.427 0 006.422-6.42 6.428 6.428 0 00-6.421-6.422zm0 10.701a4.284 4.284 0 01-4.28-4.28 4.284 4.284 0 014.28-4.281c2.36 0 4.28 1.92 4.28 4.28a4.285 4.285 0 01-4.28 4.281z"/><path d="M64.04 27.696l-9.632-14.982a1.07 1.07 0 00-.9-.491H41.737c-.592 0-1.07.48-1.07 1.07v26.754c0 .592.478 1.07 1.07 1.07h4.28v-2.14h-3.21V14.363h10.117L62.07 28.59v10.387h-5.351v2.14h6.42a1.07 1.07 0 001.07-1.07V28.275a1.056 1.056 0 00-.17-.579z"/><path d="M47.087 26.135v-7.491h8.561v-2.14h-9.631a1.07 1.07 0 00-1.07 1.07v9.631c0 .592.478 1.07 1.07 1.07h16.052v-2.14H47.087zM41.736 4.732H1.07c-.59 0-1.07.48-1.07 1.07v34.245c0 .592.48 1.07 1.07 1.07h8.561v-2.14h-7.49V6.872h38.525v32.105H20.333v2.14h21.403a1.07 1.07 0 001.07-1.07V5.802c0-.59-.478-1.07-1.07-1.07z"/><path d="M7.49 34.697H1.07v2.14h6.42v-2.14zm33.176 0H22.473v2.14h18.193v-2.14zm22.474 0h-4.281v2.14h4.28v-2.14zM41.736 9.012H4.281v2.14h37.455v-2.14zM16.052 38.977h-2.14v2.14h2.14v-2.14zm36.386 0h-2.14v2.14h2.14v-2.14zM19.263.451H4.281v2.14h14.982V.452zM2.14.451H0v2.14h2.14V.452z"/></symbol><symbol viewBox="0 0 54 52" id="client05" xmlns="http://www.w3.org/2000/svg"><path d="M51.703 0H13.985a2.298 2.298 0 00-2.296 2.296V12.7l-1.724-2.587a2.667 2.667 0 00-3.601-.81l-3.549 2.133A5.207 5.207 0 00.437 14.52C-.858 19.234.103 27.355 12.022 39.277c9.48 9.469 16.547 12.02 21.418 12.02a12.58 12.58 0 003.34-.436 5.216 5.216 0 003.086-2.376l2.13-3.552a2.668 2.668 0 00-.81-3.597l-8.497-5.664a2.682 2.682 0 00-3.59.583l-2.474 3.18a.861.861 0 01-1.101.233l-.471-.26c-1.55-.844-3.478-1.895-7.372-5.79a63.848 63.848 0 01-1.161-1.192h35.184c1.264 0 2.29-1.02 2.295-2.285V2.296A2.298 2.298 0 0051.703 0zM24.191 40.99l.458.25a2.652 2.652 0 003.398-.7l2.474-3.18a.875.875 0 011.17-.19l8.497 5.664a.87.87 0 01.264 1.17l-2.131 3.553a3.42 3.42 0 01-2.017 1.566c-4.256 1.17-11.703.18-23.006-11.124S1.008 19.25 2.176 14.997A3.42 3.42 0 013.74 12.98l3.553-2.132a.87.87 0 011.17.264l5.667 8.497c.25.38.168.89-.19 1.17l-3.182 2.475a2.651 2.651 0 00-.7 3.397l.252.457c.9 1.651 2.019 3.706 6.098 7.784 4.079 4.078 6.132 5.197 7.782 6.098zM52.2 30.14a.492.492 0 01-.495.486H14.896a22.698 22.698 0 01-3.004-4.378l-.26-.473a.859.859 0 01.233-1.1l3.181-2.475a2.68 2.68 0 00.583-3.59l-2.14-3.21V2.296a.49.49 0 01.496-.495h37.718a.49.49 0 01.496.495v27.845z"/><path d="M48.603 4.168l-15.045 11.41c-.426.31-1.002.31-1.428 0L17.09 4.168a.9.9 0 10-1.088 1.435l15.042 11.41c1.07.79 2.53.79 3.6 0l15.047-11.41a.9.9 0 10-1.088-1.435zm-23.441 12.92l-9.222 9.875a.9.9 0 001.317 1.229l9.222-9.88a.9.9 0 00-1.317-1.224zm15.424 0a.9.9 0 10-1.317 1.228l9.22 9.875a.9.9 0 001.316-1.228l-9.219-9.875z"/></symbol><symbol viewBox="0 0 17 17" id="close" xmlns="http://www.w3.org/2000/svg"><path d="M2.836 17.002L0 14.167 14.163.003 17 2.84z"/><path d="M14.166 17l2.836-2.835L2.839 0 .003 2.837z"/></symbol><symbol viewBox="0 0 52 57" id="complect01" xmlns="http://www.w3.org/2000/svg"><path d="M51.856 22.81L44.232 7.301a2.002 2.002 0 00-.713-.8L34.372.614a3.346 3.346 0 00-3.567-.037c-2.91 1.815-6.027 1.76-9.53-.168a3.334 3.334 0 00-3.399.116l-1.578 1.004c-.002 0-.003.002-.005.003L8.488 6.498a2 2 0 00-.72.806L.143 22.81a1.402 1.402 0 00.553 1.83l8.32 4.794v26.219c0 .742.6 1.346 1.336 1.346h31.294c.736 0 1.336-.604 1.336-1.346v-8.989a.839.839 0 00-.835-.842.838.838 0 00-.836.842v8.651H10.689V18.942a.838.838 0 00-.836-.842.838.838 0 00-.835.842v8.552l-7.257-4.18L9.263 8.051a.32.32 0 01.116-.13l6.784-4.316a10.313 10.313 0 001.983 3.824.83.83 0 001.176.11.847.847 0 00.11-1.186 8.619 8.619 0 01-1.78-3.695l1.115-.71c.035-.022.07-.043.106-.062a7.231 7.231 0 002.09 4.167A7.128 7.128 0 0026 8.127c1.88 0 3.658-.726 5.008-2.044a7.237 7.237 0 002.123-4.219c.118.043.233.099.342.169l.886.57C33.553 6.555 30.05 9.474 26 9.474a8.462 8.462 0 01-4.23-1.136.831.831 0 00-1.14.311.846.846 0 00.309 1.15A10.127 10.127 0 0026 11.158c4.628 0 8.658-3.189 9.848-7.597L42.62 7.92a.323.323 0 01.114.129l7.505 15.264-7.257 4.181v-8.552a.839.839 0 00-.835-.842.839.839 0 00-.836.842v24.355c0 .465.374.842.836.842a.839.839 0 00.835-.842V29.434l8.32-4.794c.635-.366.878-1.17.553-1.83zM26 6.443a5.475 5.475 0 01-3.869-1.592 5.553 5.553 0 01-1.557-2.91c3.861 2.092 7.492 2.179 10.798.255A5.512 5.512 0 0126 6.443z"/></symbol><symbol viewBox="0 0 52 58" id="complect02" xmlns="http://www.w3.org/2000/svg"><path d="M51.747 45.954C43 37.208 35.908 24.788 34.967 23.106v-3.799c0-.756.16-1.984.478-3.65a.861.861 0 10-1.693-.322c-.245 1.28-.4 2.308-.468 3.11h-14.57c-.255-2.933-1.58-8.155-1.91-9.425.315-.736.809-1.22 1.5-1.478 2.226-.825 6.002.867 7.268 1.59.265.15.59.15.854 0 1.268-.723 5.044-2.417 7.27-1.59.691.258 1.184.743 1.502 1.478-.13.492-.412 1.601-.72 2.924a.863.863 0 001.68.392c.41-1.761.773-3.133.777-3.147a.869.869 0 00-.021-.51c-.376-1.058-.992-1.85-1.836-2.372-.079-1.197-.52-4.082-2.88-6.1a.862.862 0 00-1.302.216c-.074.126-1.712 2.922-1.945 5.757A19.85 19.85 0 0026 7.404a19.942 19.942 0 00-2.555-1.092c-.134-.047-.265-.09-.398-.132-.233-2.835-1.87-5.631-1.945-5.757A.862.862 0 0019.8.207c-2.36 2.018-2.8 4.903-2.88 6.1-.843.521-1.459 1.314-1.835 2.372a.861.861 0 00-.02.51c.02.074 1.967 7.444 1.967 10.118v3.799C16.091 24.788 9 37.208.252 45.954a.858.858 0 00-.25.653.85.85 0 00.314.624c.094.077 2.178 1.765 5.784 3.652-.001 0-.002 0-.002.002a.86.86 0 00.175 1.235c.066.048 1.658 1.18 4.41 2.445a.864.864 0 00.72-1.567 32.05 32.05 0 01-3.373-1.791c7.017-9.209 12.507-21.868 12.562-21.998a.862.862 0 10-1.583-.681c-.054.124-5.205 11.996-11.847 20.962-2.35-1.211-4.075-2.363-4.994-3.023C10.408 37.969 17.05 26.575 18.4 24.19h15.199c1.35 2.384 7.993 13.778 16.233 22.276a40.468 40.468 0 01-4.994 3.023c-6.644-8.966-11.794-20.838-11.849-20.962a.86.86 0 10-1.582.681c.056.13 5.546 12.788 12.562 21.997-2.21 1.356-9.074 5.07-17.969 5.07-3.826 0-7.685-.678-11.471-2.013a.861.861 0 10-.574 1.626C17.926 57.29 21.98 58 26 58c11.375 0 19.39-5.64 19.726-5.88a.861.861 0 00.173-1.237c3.606-1.887 5.69-3.575 5.784-3.652a.865.865 0 00.064-1.277zM31.854 2.324c.893 1.13 1.26 2.432 1.412 3.342-.753-.114-1.597-.09-2.524.069.205-1.292.714-2.563 1.112-3.41zm-11.708 0c.398.848.906 2.119 1.113 3.41-.928-.159-1.772-.182-2.525-.068.151-.91.518-2.212 1.412-3.341zm13.097 20.143H18.757V20.17h14.486v2.297z"/></symbol><symbol viewBox="0 0 58 55" id="complect03" xmlns="http://www.w3.org/2000/svg"><path d="M57.117 39.203a5.059 5.059 0 00-2.584-1.935c.26-4.792-1.741-12.147-6.937-17.828-2.085-2.281-5.21-4.838-9.585-6.415.432-.885.554-1.9.32-2.878a2.622 2.622 0 010-1.215 4.282 4.282 0 00-1.386-4.261l-.033-.029a2.644 2.644 0 01-.728-.987 4.404 4.404 0 00-3.737-2.648A2.755 2.755 0 0131.29.629a4.476 4.476 0 00-4.578 0l-.013.008a2.75 2.75 0 01-1.175.372 4.405 4.405 0 00-3.707 2.646l-.014.036a2.677 2.677 0 01-.714.952l-.011.01a4.286 4.286 0 00-1.408 4.278 2.626 2.626 0 010 1.215 4.278 4.278 0 00.316 2.874c-4.721 1.7-8.02 4.56-10.186 7.104a.836.836 0 00.108 1.192c.365.3.908.252 1.214-.107a22.776 22.776 0 015.283-4.57 22.81 22.81 0 00-.562.56c-5.237 5.455-7.515 13.605-7.502 19.232a146.39 146.39 0 00-3.168.49c-.156-3.977 1.36-8.997 3.99-13.074a.837.837 0 00-.266-1.167.871.871 0 00-1.189.262c-2.912 4.512-4.502 9.925-4.243 14.328a5.055 5.055 0 00-2.581 1.932 4.896 4.896 0 00-.775 3.83l1.68 7.973c.562 2.662 3.145 4.383 5.879 3.918a127.262 127.262 0 0131.222-1.416c.476.037.89-.31.927-.776a.85.85 0 00-.79-.91 128.973 128.973 0 00-31.653 1.435c-1.814.309-3.526-.832-3.898-2.595l-1.68-7.972a3.242 3.242 0 01.513-2.536 3.371 3.371 0 012.222-1.409 143.851 143.851 0 0148.94 0 3.37 3.37 0 012.222 1.41c.517.748.7 1.649.513 2.534l-1.682 7.974c-.37 1.763-2.083 2.902-3.897 2.594a129.177 129.177 0 00-8.16-1.121.858.858 0 00-.948.752.85.85 0 00.765.93c2.681.282 5.39.654 8.05 1.107.3.05.598.075.892.075 2.385 0 4.487-1.624 4.985-3.994l1.682-7.973a4.897 4.897 0 00-.775-3.83zM46.315 20.57c4.779 5.226 6.675 11.914 6.511 16.35a136.79 136.79 0 00-3.166-.49c.013-5.627-2.265-13.777-7.503-19.232-.18-.188-.363-.37-.547-.548a22.553 22.553 0 014.705 3.92zm-12.592.074c-.53-3.039-1.16-5.285-1.912-6.79 2.821 1.366 4.722 4.64 5.902 7.493 1.964 4.749 2.763 10.21 2.877 14.072-1.868-.15-3.737-.264-5.607-.34-.063-3.98-.42-9.625-1.26-14.435zM23.017 35.08c-1.87.077-3.739.191-5.607.341.114-3.864.914-9.324 2.878-14.072 1.18-2.853 3.08-6.127 5.901-7.492-.752 1.505-1.38 3.751-1.912 6.79-.84 4.81-1.197 10.454-1.26 14.433zm16.292-14.368c-1.075-2.6-2.351-4.67-3.798-6.183 1.966.86 3.768 2.14 5.393 3.832 2.332 2.429 4.232 5.671 5.495 9.377.967 2.836 1.512 5.862 1.537 8.458a145.94 145.94 0 00-5.618-.627c-.099-4.031-.927-9.823-3.009-14.857zm-18.035-9.568c0-.204.024-.408.072-.607a4.257 4.257 0 000-1.993c-.232-.966.1-1.97.866-2.617l.01-.01a4.377 4.377 0 001.196-1.636 2.689 2.689 0 012.226-1.583l.031-.002a4.51 4.51 0 001.933-.621 2.732 2.732 0 012.799.01 4.513 4.513 0 001.948.612c.995.09 1.853.707 2.237 1.606l.005.013c.258.604.658 1.15 1.16 1.583l.031.027a2.614 2.614 0 01.866 2.618 4.292 4.292 0 000 1.993 2.614 2.614 0 01-.305 1.957c-2.169-.61-4.61-.98-7.35-.98-2.735 0-5.178.364-7.351.975a2.61 2.61 0 01-.374-1.345zM11.6 27.737c1.263-3.706 3.163-6.948 5.495-9.376 1.625-1.693 3.428-2.973 5.394-3.834-1.447 1.513-2.723 3.584-3.799 6.184-2.081 5.033-2.91 10.825-3.008 14.857-1.875.172-3.748.381-5.62.626.026-2.595.571-5.62 1.538-8.457zm13.14 7.282c.066-3.907.417-9.405 1.234-14.087 1.045-5.982 2.352-7.662 2.99-7.724h.073c.636.062 1.943 1.742 2.987 7.723.818 4.682 1.169 10.18 1.234 14.088-2.84-.084-5.68-.084-8.518 0z"/></symbol><symbol viewBox="0 0 31 52" id="facebook" xmlns="http://www.w3.org/2000/svg"><path d="M29.45 12.838c.856 0 1.55-.683 1.55-1.524v-9.79C31 .681 30.306 0 29.45 0H17.825C12.39 0 7.97 4.343 7.97 9.682v9.9H1.55c-.857 0-1.551.681-1.551 1.523v9.79c0 .842.694 1.524 1.55 1.524H7.97v18.058c0 .841.694 1.523 1.55 1.523h9.965c.856 0 1.55-.682 1.55-1.523V32.419h6.42c.74 0 1.376-.513 1.521-1.225l1.993-9.79a1.503 1.503 0 00-.322-1.265 1.561 1.561 0 00-1.198-.558h-8.414v-6.743h8.414zm-9.964 9.79h8.072l-1.372 6.744h-6.7c-.857 0-1.55.682-1.55 1.523v18.058h-6.864V30.895c0-.841-.694-1.523-1.55-1.523H3.1v-6.744h6.42c.857 0 1.55-.682 1.55-1.523V9.682c0-3.658 3.03-6.635 6.754-6.635h10.074V9.79h-8.413c-.857 0-1.55.682-1.55 1.523v9.79c0 .842.693 1.524 1.55 1.524z"/></symbol><symbol viewBox="0 0 29 25" id="heart" xmlns="http://www.w3.org/2000/svg"><path d="M14.566 25c-.398 0-.783-.145-1.082-.408a324.965 324.965 0 00-3.184-2.748l-.005-.005c-2.82-2.412-5.257-4.496-6.951-6.548C1.449 12.997.566 10.821.566 8.445c0-2.309.79-4.44 2.222-5.998C4.238.869 6.226 0 8.388 0c1.617 0 3.097.513 4.4 1.524a9.02 9.02 0 011.778 1.864 9.021 9.021 0 011.78-1.864C17.647.513 19.127 0 20.744 0c2.162 0 4.15.869 5.6 2.447 1.433 1.559 2.221 3.689 2.221 5.998 0 2.376-.882 4.552-2.776 6.846-1.695 2.052-4.131 4.136-6.952 6.548-.963.824-2.056 1.758-3.19 2.753a1.64 1.64 0 01-1.082.408zM8.388 1.646c-1.699 0-3.26.68-4.395 1.916-1.152 1.255-1.787 2.989-1.787 4.883 0 1.999.74 3.786 2.4 5.796 1.604 1.942 3.99 3.983 6.753 6.346l.005.004c.966.826 2.06 1.762 3.2 2.762a383.634 383.634 0 013.21-2.767c2.763-2.362 5.149-4.403 6.753-6.345 1.66-2.01 2.4-3.797 2.4-5.796 0-1.894-.635-3.628-1.787-4.883a5.897 5.897 0 00-4.395-1.916c-1.245 0-2.388.397-3.397 1.18-.899.698-1.525 1.58-1.892 2.198a1.026 1.026 0 01-.89.507c-.368 0-.7-.19-.889-.507-.367-.618-.993-1.5-1.893-2.198-1.009-.783-2.151-1.18-3.396-1.18z"/></symbol><symbol viewBox="0 0 54 57" id="instagram" xmlns="http://www.w3.org/2000/svg"><path d="M39.368.643H14.882C6.912.643.429 7.408.429 15.724v25.552c0 8.316 6.483 15.081 14.453 15.081h24.487c7.969 0 14.453-6.765 14.453-15.08V15.723c0-8.316-6.484-15.081-14.454-15.081zm11.323 40.633c0 6.515-5.079 11.815-11.323 11.815H14.882c-6.244 0-11.323-5.3-11.323-11.815V15.724c0-6.515 5.08-11.815 11.323-11.815h24.487c6.243 0 11.322 5.3 11.322 11.815v25.552z"/><path d="M27.125 13.266c-8.05 0-14.6 6.834-14.6 15.234s6.55 15.234 14.6 15.234S41.724 36.9 41.724 28.5s-6.55-15.234-14.6-15.234zm0 27.202c-6.324 0-11.47-5.369-11.47-11.968 0-6.598 5.146-11.967 11.47-11.967 6.324 0 11.469 5.369 11.469 11.967 0 6.6-5.145 11.968-11.47 11.968zM42.074 7.856c-2.38 0-4.314 2.02-4.314 4.501 0 2.482 1.935 4.502 4.314 4.502s4.314-2.02 4.314-4.502c0-2.482-1.935-4.501-4.314-4.501zm0 5.736c-.653 0-1.184-.554-1.184-1.235s.531-1.235 1.184-1.235c.653 0 1.184.554 1.184 1.235s-.531 1.235-1.184 1.235z"/></symbol><symbol viewBox="0 0 25 34" id="location" xmlns="http://www.w3.org/2000/svg"><path d="M12.249 0C5.495 0 0 5.495 0 12.249c0 8.381 10.961 20.686 11.428 21.206a1.103 1.103 0 001.641 0c.467-.52 11.428-12.825 11.428-21.206C24.497 5.495 19.003 0 12.25 0zm0 31.029C8.559 26.647 2.206 18 2.206 12.249c0-5.538 4.505-10.043 10.043-10.043 5.537 0 10.043 4.505 10.043 10.043 0 5.752-6.353 14.396-10.043 18.78z"/><path d="M12.249 6.086a6.17 6.17 0 00-6.163 6.163 6.17 6.17 0 006.163 6.162 6.17 6.17 0 006.162-6.162 6.17 6.17 0 00-6.162-6.163zm0 10.12a3.961 3.961 0 01-3.957-3.957 3.961 3.961 0 013.957-3.957 3.961 3.961 0 013.957 3.957 3.961 3.961 0 01-3.957 3.957z"/></symbol><symbol viewBox="0 0 148 126" id="logo" xmlns="http://www.w3.org/2000/svg"><path d="M73.298 0L35.135 22.037v44.075l38.163 22.037 38.164-22.037V22.037L73.298 0zm29.728 61.291l-29.785 17.16-29.727-17.16V26.858L73.297 9.64l29.785 17.217V61.29h-.057z"/><path d="M95.91 30.818V57.33l-15.668 9.24V51.937H66.354V66.57l-15.667-9.24V30.818l15.667-9.24v15.036h13.888V21.578l15.667 9.24zm-77.36 94.805h-4.425v-8.663H4.379v8.663H0v-20.575h4.379v8.098h9.698v-8.098h4.426v20.575h.047zm24.012 0H28.014v-20.575h14.548v3.861h-10.17v4.332h9.982v3.86h-9.982v4.661h10.17v3.861zm18.785.377c-3.107 0-5.744-.989-7.815-2.966-2.072-1.978-3.155-4.52-3.155-7.675 0-3.154 1.036-5.697 3.155-7.674 2.072-1.978 4.708-2.966 7.816-2.966 3.86 0 6.732 1.695 8.615 5.038l-3.766 1.836a6.201 6.201 0 00-1.977-2.166c-.895-.565-1.837-.848-2.873-.848-1.883 0-3.436.66-4.614 1.931-1.224 1.271-1.836 2.872-1.836 4.849 0 1.978.612 3.579 1.837 4.85 1.224 1.271 2.777 1.93 4.613 1.93 1.036 0 1.978-.282 2.873-.847.894-.565 1.553-1.272 1.977-2.166l3.766 1.836c-1.977 3.343-4.849 5.038-8.615 5.038zm25.802-.377h-4.426v-16.714h-6.026v-3.861h16.431v3.861H87.15v16.714zm23.964.377c-3.107 0-5.697-.989-7.721-3.013-2.025-2.025-3.06-4.567-3.06-7.628 0-3.107 1.035-5.65 3.06-7.627 2.024-2.025 4.614-3.013 7.721-3.013 3.108 0 5.697.988 7.722 3.013 2.024 1.977 3.06 4.567 3.06 7.674 0 3.108-1.036 5.65-3.06 7.675-2.025 1.93-4.614 2.919-7.722 2.919zm-4.52-5.791c1.13 1.271 2.637 1.93 4.52 1.93 1.884 0 3.39-.659 4.52-1.93 1.13-1.271 1.742-2.872 1.742-4.85 0-1.977-.565-3.578-1.742-4.849-1.13-1.271-2.683-1.931-4.52-1.931-1.883 0-3.39.66-4.52 1.931-1.13 1.271-1.694 2.872-1.694 4.849 0 1.931.564 3.531 1.694 4.85zm40.444 5.414h-5.038l-4.049-7.298h-3.201v7.298h-4.379v-20.575h9.652c2.119 0 3.814.612 5.038 1.837 1.224 1.224 1.883 2.824 1.883 4.802 0 1.695-.424 3.06-1.318 4.096-.895 1.036-1.931 1.695-3.202 2.025l4.614 7.815zm-7.674-11.158c.894 0 1.648-.236 2.213-.754.565-.517.847-1.177.847-2.024 0-.848-.282-1.507-.847-2.025s-1.319-.753-2.213-.753h-4.614v5.556h4.614z"/></symbol><symbol viewBox="0 0 29 21" id="mail" xmlns="http://www.w3.org/2000/svg"><path d="M26.281 0H2.72C1.219 0 0 1.177 0 2.625v15.75C0 19.823 1.22 21 2.719 21H26.28c1.5 0 2.719-1.177 2.719-2.625V2.625C29 1.177 27.78 0 26.281 0zm0 1.75c.123 0 .24.025.348.068L14.5 11.968 2.371 1.817a.93.93 0 01.348-.068H26.28zm0 17.5H2.72c-.5 0-.907-.392-.907-.875V3.667l12.094 10.12a.93.93 0 001.188-.001l12.094-10.12v14.709c0 .483-.407.875-.907.875z"/></symbol><symbol viewBox="0 0 384.97 384.97" id="menu" xmlns="http://www.w3.org/2000/svg"><path d="M12.03 84.212h360.909c6.641 0 12.03-5.39 12.03-12.03 0-6.641-5.39-12.03-12.03-12.03H12.03C5.39 60.152 0 65.541 0 72.182c0 6.641 5.39 12.03 12.03 12.03zm360.909 96.243H12.03c-6.641 0-12.03 5.39-12.03 12.03s5.39 12.03 12.03 12.03h360.909c6.641 0 12.03-5.39 12.03-12.03s-5.389-12.03-12.03-12.03zm0 120.303H12.03c-6.641 0-12.03 5.39-12.03 12.03 0 6.641 5.39 12.03 12.03 12.03h360.909c6.641 0 12.03-5.39 12.03-12.03.001-6.641-5.389-12.03-12.03-12.03z"/></symbol><symbol viewBox="0 0 26 25" id="phone" xmlns="http://www.w3.org/2000/svg"><path d="M5.838 16.51c2.45 2.928 5.398 5.233 8.764 6.865 1.281.607 2.995 1.328 4.904 1.451.119.005.232.01.35.01 1.282 0 2.311-.442 3.15-1.353.005-.005.015-.015.02-.026.3-.36.639-.684.994-1.029.242-.232.489-.474.726-.72 1.096-1.143 1.096-2.594-.01-3.7l-3.094-3.094c-.525-.545-1.152-.833-1.811-.833s-1.292.288-1.832.828l-1.843 1.842a9.726 9.726 0 00-.51-.267 6.368 6.368 0 01-.565-.309c-1.678-1.065-3.201-2.455-4.658-4.24-.736-.932-1.23-1.714-1.575-2.512.484-.437.937-.895 1.374-1.343.155-.16.314-.32.474-.479.556-.556.854-1.199.854-1.852 0-.654-.293-1.297-.854-1.853L9.162 2.362c-.18-.18-.35-.355-.525-.535-.34-.35-.694-.71-1.044-1.034C7.063.273 6.44 0 5.78 0 5.128 0 4.5.273 3.95.798L2.024 2.722c-.7.7-1.096 1.55-1.178 2.532-.098 1.23.128 2.538.715 4.118.9 2.444 2.26 4.714 4.277 7.138zM2.1 5.363a2.722 2.722 0 01.819-1.75l1.914-1.915c.299-.288.628-.437.947-.437.314 0 .633.15.926.448.345.319.67.653 1.02 1.008.174.18.355.36.535.546l1.533 1.533c.32.32.484.644.484.963 0 .319-.165.643-.484.962-.16.16-.319.324-.478.484-.479.484-.927.942-1.42 1.38l-.026.025c-.428.427-.36.834-.258 1.142.005.016.01.026.016.042.396.952.947 1.857 1.806 2.938 1.544 1.904 3.17 3.381 4.961 4.519.221.144.458.257.68.37.205.103.396.2.566.309l.056.03c.17.088.335.13.5.13.411 0 .679-.263.766-.35l1.925-1.925c.299-.299.623-.458.942-.458.39 0 .71.242.91.458l3.104 3.098c.617.617.612 1.287-.015 1.94-.217.232-.443.453-.685.685-.36.35-.736.71-1.076 1.116-.591.639-1.296.937-2.207.937a4.8 4.8 0 01-.268-.01c-1.688-.108-3.258-.767-4.436-1.328-3.201-1.55-6.011-3.747-8.342-6.536-1.92-2.31-3.212-4.462-4.066-6.767-.53-1.416-.73-2.553-.649-3.587z"/></symbol><symbol viewBox="0 0 32 32" id="phone02" xmlns="http://www.w3.org/2000/svg"><path d="M29.474 21.07c-1.974 0-3.908-.309-5.74-.913-.894-.309-1.91-.071-2.498.529l-3.633 2.743c-4.168-2.225-6.836-4.89-9.03-9.029l2.67-3.547a2.55 2.55 0 00.624-2.577c-.61-1.844-.92-3.78-.92-5.75A2.53 2.53 0 008.421 0H2.526A2.53 2.53 0 000 2.526C0 18.777 13.223 32 29.474 32A2.53 2.53 0 0032 29.474v-5.878a2.53 2.53 0 00-2.526-2.526z"/></symbol><symbol viewBox="0 0 29 30" id="phone03" xmlns="http://www.w3.org/2000/svg"><path d="M22.913 17.976c-.594-.618-1.31-.95-2.07-.95-.754 0-1.476.325-2.095.944l-1.935 1.93c-.16-.086-.319-.166-.472-.246a7.764 7.764 0 01-.606-.324c-1.813-1.152-3.46-2.652-5.04-4.594-.766-.968-1.28-1.782-1.654-2.609.502-.46.967-.937 1.42-1.396.172-.172.344-.35.515-.52 1.286-1.287 1.286-2.953 0-4.24L9.304 4.3c-.19-.19-.386-.386-.57-.582a28.92 28.92 0 00-1.151-1.14c-.594-.587-1.305-.9-2.052-.9-.747 0-1.47.313-2.082.9l-.012.013-2.083 2.1A4.48 4.48 0 00.025 7.54c-.147 1.788.38 3.454.784 4.544.992 2.677 2.474 5.157 4.685 7.815 2.683 3.203 5.91 5.733 9.598 7.515 1.408.668 3.289 1.458 5.39 1.592.128.007.263.013.385.013 1.415 0 2.603-.509 3.534-1.52.006-.011.019-.017.025-.03.318-.386.686-.735 1.072-1.108.263-.251.532-.515.796-.79.606-.631.924-1.366.924-2.12 0-.759-.324-1.488-.943-2.1l-3.362-3.375zm2.192 6.45c-.006 0-.006.005 0 0-.238.257-.483.49-.747.747-.398.38-.802.777-1.182 1.224-.618.662-1.347.974-2.303.974-.091 0-.19 0-.281-.006-1.82-.116-3.51-.827-4.777-1.433-3.467-1.678-6.511-4.06-9.04-7.08-2.089-2.517-3.485-4.845-4.41-7.344-.57-1.525-.778-2.713-.686-3.834.061-.716.337-1.31.845-1.819l2.089-2.088c.3-.282.618-.435.93-.435.386 0 .699.233.895.429l.018.018c.374.35.729.71 1.102 1.097.19.196.386.391.582.594l1.672 1.672c.65.649.65 1.249 0 1.898-.177.178-.349.355-.526.527a31.95 31.95 0 01-1.538 1.494c-.012.013-.024.019-.03.031-.527.527-.429 1.041-.319 1.39l.019.055c.434 1.054 1.047 2.046 1.978 3.228l.006.006c1.69 2.083 3.473 3.706 5.439 4.949.25.16.508.288.753.41.22.11.429.215.606.325.025.012.05.03.074.043.208.104.404.153.606.153.509 0 .827-.319.931-.423l2.095-2.094c.208-.209.539-.46.925-.46.38 0 .692.24.881.447l.013.013 3.374 3.374c.631.625.631 1.268.006 1.917zM15.661 6.903a7.767 7.767 0 014.226 2.192 7.807 7.807 0 012.193 4.226.822.822 0 00.815.686c.049 0 .091-.006.14-.012a.828.828 0 00.68-.955 9.447 9.447 0 00-2.652-5.114 9.446 9.446 0 00-5.114-2.652.831.831 0 00-.955.673.818.818 0 00.667.956zM28.964 12.8a15.54 15.54 0 00-4.367-8.42A15.54 15.54 0 0016.176.012a.824.824 0 00-.95.673.83.83 0 00.68.956 13.916 13.916 0 017.527 3.901 13.876 13.876 0 013.902 7.527.822.822 0 00.814.686c.05 0 .092-.006.141-.012a.811.811 0 00.674-.943z"/></symbol><symbol viewBox="0 0 26 25" id="search" xmlns="http://www.w3.org/2000/svg"><path d="M11.576 0C5.506 0 .566 4.939.566 11.01c0 6.07 4.94 11.009 11.01 11.009 6.07 0 11.01-4.939 11.01-11.01C22.585 4.94 17.645 0 11.575 0zm0 19.986c-4.95 0-8.977-4.027-8.977-8.977s4.027-8.976 8.977-8.976 8.977 4.027 8.977 8.976c0 4.95-4.027 8.977-8.977 8.977z"/><path d="M25.268 23.265l-5.826-5.826a1.016 1.016 0 10-1.437 1.437l5.826 5.826a1.012 1.012 0 001.437 0 1.016 1.016 0 000-1.437z"/></symbol><symbol viewBox="0 0 48 41" id="telegram" xmlns="http://www.w3.org/2000/svg"><path d="M18.968 27.122L18.2 38.465c1.099 0 1.575-.496 2.145-1.091l5.152-5.17 10.675 8.209c1.957 1.145 3.337.542 3.865-1.891l7.007-34.475.001-.002C47.666 1.006 46-.182 44.091.564L2.905 17.12c-2.81 1.146-2.768 2.791-.477 3.537l10.53 3.439 24.457-16.07c1.151-.8 2.198-.357 1.337.443L18.968 27.122z"/></symbol><symbol viewBox="0 0 21 25" id="user" xmlns="http://www.w3.org/2000/svg"><path d="M10.284 12.043c1.655 0 3.087-.594 4.258-1.764 1.17-1.171 1.764-2.603 1.764-4.258 0-1.654-.594-3.086-1.764-4.257C13.37.594 11.938 0 10.284 0S7.197.593 6.027 1.764c-1.17 1.17-1.764 2.603-1.764 4.257 0 1.655.593 3.087 1.764 4.258 1.17 1.17 2.603 1.764 4.257 1.764zM7.063 2.8c.898-.898 1.952-1.335 3.221-1.335 1.27 0 2.323.437 3.222 1.335.898.898 1.335 1.952 1.335 3.221 0 1.27-.437 2.323-1.335 3.222-.899.898-1.953 1.335-3.222 1.335s-2.323-.437-3.221-1.335C6.165 8.344 5.728 7.29 5.728 6.02c0-1.269.437-2.323 1.335-3.221zM20.82 19.224a14.887 14.887 0 00-.202-1.58 12.45 12.45 0 00-.389-1.588 7.846 7.846 0 00-.653-1.481 5.58 5.58 0 00-.984-1.284 4.341 4.341 0 00-1.415-.888 4.889 4.889 0 00-1.805-.327c-.255 0-.502.105-.979.415-.293.191-.636.413-1.02.657-.327.21-.77.405-1.318.582a5.239 5.239 0 01-1.614.26 5.242 5.242 0 01-1.613-.26c-.548-.177-.991-.373-1.318-.581-.38-.243-.723-.464-1.02-.658-.477-.31-.724-.415-.98-.415-.65 0-1.256.11-1.804.327a4.337 4.337 0 00-1.415.889 5.583 5.583 0 00-.984 1.283 7.856 7.856 0 00-.653 1.481 12.475 12.475 0 00-.388 1.588c-.101.56-.17 1.092-.203 1.58-.033.478-.05.975-.05 1.477 0 1.305.415 2.361 1.233 3.14.808.77 1.877 1.159 3.177 1.159h12.038c1.3 0 2.369-.39 3.177-1.159.818-.778 1.233-1.835 1.233-3.14 0-.504-.017-1.001-.05-1.477zm-2.192 3.556c-.534.508-1.243.755-2.167.755H4.423c-.924 0-1.633-.247-2.167-.755-.523-.498-.778-1.179-.778-2.08 0-.468.016-.93.047-1.374.03-.436.091-.915.183-1.423.09-.502.205-.974.341-1.4.131-.41.31-.815.532-1.205a4.14 4.14 0 01.723-.948c.251-.24.568-.437.941-.585a3.37 3.37 0 011.154-.223c.051.028.142.08.29.176.302.197.649.42 1.033.666.432.275.99.524 1.655.74.681.22 1.375.331 2.064.331.69 0 1.384-.111 2.064-.331.667-.216 1.224-.465 1.657-.74.393-.252.73-.47 1.031-.666.148-.096.24-.148.291-.175.421.01.809.086 1.154.222.373.148.69.345.94.585.27.257.513.576.724.948.222.39.401.796.532 1.205.137.427.252.898.342 1.4.09.51.153.988.183 1.423.03.442.047.905.047 1.375 0 .9-.255 1.58-.778 2.079z"/></symbol><symbol viewBox="0 0 53 57" id="viber" xmlns="http://www.w3.org/2000/svg"><path d="M46.874 6.068C45.492 4.795 39.899.737 27.43.682c0 0-14.699-.881-21.858 5.69C1.59 10.356.186 16.199.034 23.434c-.153 7.235-.338 20.792 12.73 24.47h.01l-.01 5.614s-.087 2.274 1.414 2.731c1.806.566 2.873-1.164 4.603-3.025.946-1.022 2.252-2.524 3.242-3.666 8.944.75 15.809-.969 16.592-1.219 1.807-.587 12.023-1.893 13.677-15.45 1.72-13.992-.827-22.827-5.418-26.82zm1.512 25.797C46.982 43.181 38.702 43.9 37.179 44.39c-.653.206-6.691 1.708-14.275 1.218 0 0-5.657 6.822-7.42 8.596-.577.576-1.208.522-1.197-.62 0-.751.043-9.325.043-9.325-.01 0-.01 0 0 0C3.255 41.19 3.908 29.646 4.027 23.608c.12-6.04 1.262-10.99 4.635-14.32 6.06-5.494 18.54-4.678 18.54-4.678 10.543.044 15.591 3.22 16.766 4.287 3.885 3.33 5.865 11.294 4.418 22.968zm-15.124-8.791c.044.936-1.36 1-1.403.065-.12-2.393-1.24-3.558-3.547-3.688-.936-.055-.849-1.458.076-1.404 3.035.163 4.722 1.904 4.874 5.027zm2.209 1.23c.109-4.614-2.774-8.226-8.247-8.629-.925-.065-.827-1.469.098-1.403 6.31.457 9.672 4.798 9.553 10.064-.011.936-1.426.892-1.404-.033zm5.114 1.457c.01.936-1.404.947-1.404.011-.065-8.867-5.973-13.698-13.143-13.752-.925-.011-.925-1.404 0-1.404 8.019.054 14.47 5.593 14.547 15.145zm-1.23 10.674v.022c-1.175 2.067-3.373 4.352-5.636 3.623l-.022-.033c-2.295-.642-7.703-3.427-11.12-6.147a28.44 28.44 0 01-4.612-4.613 35.298 35.298 0 01-3.352-5.07c-2.317-4.19-2.829-6.061-2.829-6.061-.729-2.263 1.545-4.46 3.624-5.636h.021c1.001-.522 1.959-.348 2.6.424 0 0 1.35 1.61 1.927 2.405.544.74 1.273 1.926 1.654 2.59.663 1.185.25 2.393-.403 2.894L19.9 21.877c-.663.533-.576 1.523-.576 1.523s1.936 7.323 9.172 9.172c0 0 .99.087 1.523-.576l1.044-1.306c.501-.653 1.709-1.066 2.895-.402 1.599.903 3.634 2.306 4.983 3.58.761.62.935 1.566.413 2.567z"/></symbol><symbol viewBox="0 0 57 57" id="whatsup" xmlns="http://www.w3.org/2000/svg"><path d="M48.227 8.739C43.016 3.516 36.077.643 28.702.643 13.48.643 1.093 13.029 1.093 28.25c0 4.863 1.269 9.613 3.681 13.805L.857 56.357l14.637-3.843a27.524 27.524 0 0013.195 3.358h.013c15.21 0 27.87-12.386 27.87-27.608 0-7.375-3.135-14.302-8.346-19.525zM28.702 51.22c-4.13 0-8.171-1.107-11.69-3.196l-.834-.498-8.68 2.276 2.313-8.469-.547-.87A22.871 22.871 0 015.757 28.25c0-12.647 10.297-22.945 22.957-22.945 6.131 0 11.89 2.388 16.217 6.728 4.328 4.34 6.99 10.099 6.977 16.23 0 12.66-10.559 22.957-23.206 22.957zm12.585-17.187c-.684-.348-4.079-2.015-4.713-2.238-.634-.237-1.095-.349-1.555.348-.46.696-1.778 2.238-2.188 2.71-.399.461-.809.523-1.493.175-4.054-2.027-6.715-3.619-9.39-8.208-.708-1.219.71-1.132 2.028-3.768.224-.46.112-.858-.062-1.206-.174-.349-1.555-3.744-2.127-5.124-.56-1.343-1.132-1.157-1.554-1.182-.398-.024-.858-.024-1.319-.024-.46 0-1.206.174-1.84.858-.635.696-2.413 2.363-2.413 5.758s2.475 6.678 2.81 7.138c.349.46 4.863 7.424 11.79 10.422 4.378 1.89 6.094 2.052 8.283 1.728 1.33-.199 4.079-1.666 4.65-3.283.573-1.617.573-2.997.399-3.283-.162-.311-.622-.485-1.306-.82z"/></symbol><symbol viewBox="0 0 65 49" id="youtube" xmlns="http://www.w3.org/2000/svg"><path d="M42.305 21.606l-14.293-7.82a2.603 2.603 0 00-2.598.044 2.602 2.602 0 00-1.287 2.258v15.507c0 .932.478 1.775 1.278 2.253.418.25.882.375 1.346.375a2.62 2.62 0 001.245-.316l14.293-7.686a2.625 2.625 0 00.016-4.615zm-14.387 8.038v-11.59L38.6 23.9l-10.682 5.744z"/><path d="M64.218 11.565l-.003-.03c-.055-.52-.6-5.152-2.852-7.508C58.76 1.257 55.81.92 54.391.758a17.04 17.04 0 01-.322-.038l-.113-.012C45.404.086 32.487 0 32.358 0h-.022c-.13.001-13.046.086-21.676.708l-.114.012c-.092.012-.193.023-.303.036-1.403.162-4.322.5-6.932 3.37C1.167 6.456.547 10.99.483 11.5l-.007.066C.456 11.782 0 16.94 0 22.119v4.84c0 5.18.457 10.337.476 10.555l.003.032c.055.513.6 5.06 2.841 7.416 2.447 2.678 5.542 3.033 7.206 3.223.263.03.49.056.644.083l.15.02c4.938.47 20.42.702 21.077.712h.04c.129-.001 13.045-.086 21.597-.708l.114-.012c.108-.014.229-.027.362-.04 1.395-.149 4.298-.456 6.872-3.288 2.145-2.331 2.765-6.864 2.828-7.373l.008-.066c.02-.217.476-5.375.476-10.553v-4.841c0-5.18-.457-10.337-.476-10.554zm-3.316 15.394c0 4.794-.418 9.73-.458 10.183-.16 1.248-.814 4.116-1.86 5.252-1.61 1.772-3.265 1.948-4.474 2.075-.146.016-.28.03-.403.046-8.273.598-20.701.69-21.274.693-.642-.009-15.898-.242-20.686-.687-.245-.04-.51-.07-.79-.102-1.417-.163-3.356-.385-4.848-2.025l-.035-.038c-1.027-1.07-1.662-3.751-1.823-5.2-.03-.342-.46-5.336-.46-10.197v-4.84c0-4.788.418-9.719.458-10.181.192-1.47.859-4.165 1.86-5.254 1.66-1.826 3.411-2.028 4.569-2.162l.309-.037c8.393-.601 20.91-.69 21.36-.694.449.003 12.962.093 21.28.694l.334.04c1.191.135 2.991.34 4.643 2.103l.016.016c1.026 1.07 1.662 3.798 1.823 5.275.029.324.46 5.329.46 10.2v4.84z"/></symbol></svg>