<?xml version="1.0" standalone="no"?>
<!DOCTYPE svg PUBLIC "-//W3C//DTD SVG 20010904//EN"
 "http://www.w3.org/TR/2001/REC-SVG-20010904/DTD/svg10.dtd">
<svg version="1.0" xmlns="http://www.w3.org/2000/svg"
 width="120.000000pt" height="120.000000pt" viewBox="0 0 120.000000 120.000000"
 preserveAspectRatio="xMidYMid meet">
<metadata>
Created by potrace 1.14, written by Peter Selinger 2001-2017
</metadata>
<g transform="translate(0.000000,120.000000) scale(0.100000,-0.100000)"
fill="#000000" stroke="none">
<path d="M585 1187 c-11 -7 -32 -20 -47 -30 -16 -10 -28 -15 -28 -10 0 4 -4 3
-8 -3 -6 -9 -118 -77 -252 -151 -42 -24 -139 -82 -150 -91 -3 -2 -5 -136 -5
-299 0 -255 2 -296 15 -301 8 -3 17 -8 20 -12 3 -4 34 -22 70 -41 35 -19 70
-39 77 -46 7 -6 22 -15 33 -18 11 -3 20 -11 20 -16 0 -6 4 -8 9 -5 5 3 19 -3
32 -13 13 -10 59 -38 102 -62 43 -24 88 -50 100 -56 31 -18 55 -16 87 7 15 11
30 17 34 13 3 -3 6 -2 6 4 0 6 25 23 55 38 30 16 55 32 55 37 0 5 4 7 9 3 5
-3 12 -1 16 5 3 5 23 17 43 27 20 9 43 23 50 30 7 7 19 13 26 13 8 0 18 6 24
13 6 7 33 24 61 37 28 14 51 28 51 33 0 4 7 7 15 7 8 0 15 3 16 8 6 43 4 62
-5 62 -7 0 -8 3 -1 8 14 9 14 65 0 74 -7 5 -6 8 1 8 12 0 12 49 0 69 -4 6 -2
11 5 11 8 0 8 4 -1 15 -7 8 -8 15 -3 15 13 0 11 63 -2 72 -7 5 -7 8 0 8 14 0
14 100 1 100 -8 0 -8 3 -1 8 6 4 11 16 11 27 0 11 -5 23 -11 27 -7 5 -7 8 1 8
5 0 10 11 10 25 0 14 -4 25 -10 25 -6 0 -5 5 1 11 9 9 9 15 0 23 -10 9 -130
80 -277 163 -19 11 -79 46 -132 77 -54 31 -99 56 -100 55 -2 0 -12 -6 -23 -12z
m208 -224 c88 -51 163 -93 168 -93 5 0 9 -4 9 -9 0 -5 9 -11 20 -14 20 -5 20
-12 18 -244 -2 -133 -7 -237 -12 -235 -5 2 -12 0 -15 -5 -8 -12 -109 -73 -120
-73 -4 0 -18 -9 -31 -20 -12 -11 -26 -17 -30 -15 -5 3 -10 1 -12 -4 -5 -12
-165 -101 -182 -101 -9 0 -37 13 -63 30 -26 16 -53 30 -60 30 -7 0 -13 3 -13
8 0 4 -17 16 -37 27 -21 10 -50 28 -65 38 -16 10 -28 16 -28 12 0 -5 -10 2
-43 31 -7 6 -15 11 -20 12 -4 1 -21 9 -37 17 -34 18 -31 -3 -34 247 0 106 3
168 9 169 6 0 6 2 -1 5 -6 2 -9 18 -6 34 3 24 16 36 61 62 31 18 58 31 60 29
2 -1 7 1 10 6 5 8 178 113 246 149 26 14 25 15 208 -93z"/>
<path d="M465 882 c-16 -10 -32 -20 -35 -23 -3 -3 -21 -14 -40 -24 -19 -10
-37 -21 -40 -24 -3 -3 -14 -11 -25 -17 -18 -10 -20 -22 -20 -184 0 -159 1
-175 19 -192 11 -10 28 -20 38 -24 10 -3 18 -10 18 -15 0 -5 9 -9 20 -9 11 0
20 -4 20 -10 0 -5 5 -10 12 -10 6 0 19 -6 27 -14 9 -7 25 -16 37 -20 20 -6 20
-3 19 71 -2 119 -7 113 96 113 l89 0 1 -32 c0 -18 1 -61 1 -95 0 -35 4 -63 9
-63 5 0 27 11 49 25 22 14 42 25 46 25 3 0 12 6 19 12 7 7 31 23 52 36 l38 23
0 179 c0 99 -4 180 -8 180 -5 0 -28 14 -52 30 -24 17 -47 30 -50 30 -4 0 -19
8 -33 19 -15 10 -36 21 -48 25 -20 6 -21 3 -21 -84 0 -50 -3 -94 -7 -97 -3 -4
-44 -7 -91 -7 -97 -1 -92 -8 -90 112 1 88 -1 90 -50 64z"/>
</g>
</svg>
