<svg width="31" height="25" fill="none" xmlns="http://www.w3.org/2000/svg">
    <path d="M29.576 8.327a2.035 2.035 0 00-1.6-.768h-5.672L19.23.518a.863.863 0 10-1.58.69l2.773 6.351H10.158l2.774-6.35A.863.863 0 0011.35.517L8.275 7.559h-5.67c-.63 0-1.213.28-1.601.768a1.986 1.986 0 00-.387 1.69l3.029 13.227a2.021 2.021 0 001.987 1.57h19.314c.958 0 1.776-.646 1.987-1.57l3.028-13.228a1.986 1.986 0 00-.386-1.69zm-4.63 14.76H5.634a.309.309 0 01-.305-.228L2.299 9.631a.263.263 0 01.054-.229.313.313 0 01.251-.117h4.918l-.226.517a.863.863 0 001.58.69l.528-1.207h11.771l.528 1.208a.863.863 0 101.581-.69l-.226-.518h4.918c.137 0 .216.073.25.117a.263.263 0 01.055.23l-3.029 13.227a.309.309 0 01-.305.229z" fill="white"/>
</svg>
